<!DOCTYPE svg PUBLIC "-//W3C//DTD SVG 20010904//EN" "http://www.w3.org/TR/2001/REC-SVG-20010904/DTD/svg10.dtd">
<svg version="1.0" xmlns="http://www.w3.org/2000/svg" width="131px" height="129px" viewBox="0 0 1310 1290" preserveAspectRatio="xMidYMid meet">
<g id="layer101" fill="#047418" stroke="none">
 <path d="M0 645 l0 -645 655 0 655 0 0 645 0 645 -655 0 -655 0 0 -645z"/>
 </g>
<g id="layer102" fill="#185e23" stroke="none">
 <path d="M0 645 l0 -645 653 0 653 0 3 643 2 642 -655 2 -656 2 0 -644z m1185 610 c17 -7 44 -28 60 -45 l30 -31 3 -226 c2 -124 7 -234 10 -244 4 -10 5 -146 2 -303 -6 -313 -5 -309 -74 -360 -26 -20 -38 -21 -369 -19 -188 1 -431 3 -539 3 l-198 0 -40 36 -40 36 0 529 c0 584 -1 576 64 615 42 26 133 30 641 26 332 -2 426 -6 450 -17z"/>
 <path d="M403 1200 c-32 -13 -45 -44 -37 -88 10 -58 7 -42 60 -254 8 -35 17 -74 20 -88 13 -60 43 -187 50 -204 6 -17 5 -17 -17 -5 -37 20 -111 7 -130 -24 -4 -5 -5 -24 -2 -41 7 -56 56 -241 67 -254 7 -10 23 -12 55 -7 74 11 84 20 78 68 l-6 42 21 -27 c11 -16 26 -28 34 -28 20 0 17 -17 -6 -42 -30 -32 -26 -89 7 -128 25 -30 30 -32 80 -28 70 6 93 30 93 94 0 40 -5 51 -33 78 l-34 32 24 17 c12 10 23 27 23 37 0 19 27 131 32 135 2 1 33 10 70 19 38 10 69 24 73 33 9 24 12 14 30 -72 9 -44 23 -87 31 -95 12 -13 16 -12 33 5 18 20 18 23 -10 180 -16 88 -33 184 -39 213 -5 28 -15 78 -21 110 -6 31 -15 77 -20 102 -6 25 -14 68 -19 95 -18 99 -22 115 -36 126 -11 9 -20 9 -38 -1 -19 -10 -31 -10 -59 1 -51 18 -82 -4 -101 -74 -22 -82 -66 -274 -66 -291 0 -9 -3 -16 -7 -16 -10 0 -33 49 -33 69 0 45 -71 297 -87 308 -19 15 -48 16 -80 3z m452 -200 c8 -47 20 -114 26 -150 6 -36 15 -78 19 -95 5 -16 12 -54 15 -83 l6 -54 -35 3 c-19 2 -38 0 -42 -4 -4 -4 -22 -7 -41 -7 -18 0 -42 -5 -52 -12 -10 -6 -25 -8 -34 -5 -14 5 -15 11 -3 49 8 24 18 66 24 93 31 147 88 363 94 356 4 -3 14 -45 23 -91z m-338 -542 c-3 -8 -6 -5 -6 6 -1 11 2 17 5 13 3 -3 4 -12 1 -19z m23 -54 c0 -8 -4 -12 -10 -9 -5 3 -10 13 -10 21 0 8 5 12 10 9 6 -3 10 -13 10 -21z"/>
 </g>
<g id="layer103" fill="#136b25" stroke="none">
 <path d="M0 645 l0 -645 653 0 653 0 3 645 2 645 -85 0 c-53 0 -87 -4 -92 -12 -5 -7 -3 -8 5 -4 7 5 21 0 31 -9 11 -10 26 -15 35 -11 9 3 14 2 11 -3 -8 -12 29 -43 39 -34 4 5 5 2 1 -5 -4 -7 -1 -15 8 -18 10 -4 14 -16 11 -35 -2 -16 -1 -27 3 -25 4 2 7 -91 7 -207 1 -117 2 -341 4 -498 2 -158 0 -292 -3 -298 -4 -6 -4 -11 -1 -11 4 0 -1 -7 -9 -16 -9 -8 -14 -20 -10 -25 3 -5 0 -8 -7 -7 -7 2 -13 -4 -14 -12 0 -8 -4 -15 -10 -16 -30 -3 -76 -18 -81 -25 -3 -5 -230 -8 -507 -7 -345 2 -444 4 -317 8 l185 6 -201 0 c-151 -1 -204 2 -213 12 -7 7 -17 10 -22 6 -5 -3 -8 0 -7 8 2 7 -3 12 -10 10 -8 -1 -11 2 -8 7 3 5 -1 14 -9 21 -22 18 -23 1056 0 1099 8 16 12 31 9 33 -2 3 3 11 13 19 13 11 15 11 9 1 -7 -11 -4 -11 12 -1 12 7 19 16 17 19 -6 10 -12 10 524 10 272 0 492 3 488 7 -4 3 -257 8 -562 10 l-555 3 0 -645z m17 -447 c-2 -24 -4 -7 -4 37 0 44 2 63 4 43 2 -21 2 -57 0 -80z"/>
 <path d="M403 1200 c-12 -5 -27 -18 -33 -30 -12 -22 -4 -86 14 -109 9 -12 8 -13 -2 -7 -12 7 -12 4 -1 -15 7 -13 12 -28 11 -33 -2 -4 1 -22 7 -40 5 -17 15 -59 22 -93 7 -35 16 -63 20 -63 5 0 6 -9 4 -20 -2 -11 1 -20 7 -20 5 0 7 -7 4 -16 -3 -9 -3 -21 1 -27 4 -6 8 -27 10 -46 2 -20 7 -38 11 -41 4 -3 8 -18 9 -34 1 -16 8 -33 15 -37 7 -4 9 -11 6 -15 -4 -4 -18 0 -30 7 -25 15 -92 14 -83 -2 3 -5 0 -6 -8 -3 -19 7 -46 -21 -42 -43 2 -10 4 -31 4 -46 1 -16 5 -26 10 -23 5 4 7 -3 4 -14 -3 -11 -1 -20 5 -20 6 0 8 -9 5 -20 -3 -12 0 -20 6 -20 7 0 10 -4 6 -9 -7 -12 14 -101 28 -119 11 -14 53 -16 62 -2 3 5 12 7 20 4 25 -10 55 15 53 44 -1 15 -5 32 -10 38 -5 7 -2 14 7 18 9 3 14 2 11 -3 -3 -5 3 -20 15 -32 11 -13 17 -17 13 -9 -7 13 -5 13 9 1 22 -17 21 -27 -1 -52 -29 -30 -27 -92 4 -128 22 -26 33 -31 70 -31 32 0 43 3 38 12 -5 8 -2 9 11 4 30 -11 54 24 52 78 -1 25 -6 46 -10 46 -5 0 -6 4 -2 9 3 6 -8 20 -24 32 l-29 21 24 22 c19 16 25 32 26 68 1 25 6 44 11 41 5 -3 8 3 6 13 -3 29 11 54 32 54 10 0 19 5 19 11 0 5 4 7 10 4 14 -8 90 16 91 29 1 6 1 16 -1 21 -1 6 4 5 10 -1 6 -6 14 -30 17 -53 3 -22 8 -41 12 -41 3 0 7 -17 8 -37 1 -20 9 -43 17 -51 14 -14 17 -14 36 3 14 13 17 22 10 30 -6 7 -8 20 -4 29 3 9 3 24 -1 34 -5 9 -7 27 -6 39 1 13 -2 23 -8 23 -7 0 -9 10 -5 25 3 14 2 25 -2 25 -5 0 -10 24 -11 53 -1 30 -8 67 -14 83 -7 16 -11 43 -10 59 1 24 0 27 -9 15 -9 -12 -10 -8 -5 18 4 17 3 32 -2 32 -5 0 -7 16 -5 36 3 24 1 34 -6 30 -6 -4 -8 2 -5 14 3 11 1 20 -5 20 -7 0 -8 14 -5 37 4 21 2 34 -3 30 -10 -6 -13 12 -14 76 0 26 -4 36 -12 31 -7 -4 -8 -3 -4 5 4 6 3 18 -3 25 -6 7 -9 20 -6 28 10 24 -21 43 -48 30 -24 -13 -67 -13 -67 0 0 4 -9 8 -21 8 -11 0 -17 -4 -14 -10 3 -5 0 -7 -9 -4 -20 8 -49 -40 -50 -81 -1 -18 -5 -31 -10 -28 -4 3 -5 -9 -1 -27 4 -20 3 -30 -3 -26 -8 5 -33 -84 -38 -134 -1 -8 -4 -22 -8 -31 -4 -9 -6 -22 -4 -29 2 -7 -3 -15 -9 -17 -7 -3 -13 3 -13 12 0 9 -4 14 -8 11 -4 -2 -9 5 -10 17 -5 36 -9 62 -11 62 -2 0 -5 18 -7 40 -3 22 -8 42 -12 45 -4 3 -8 21 -10 40 -1 19 -7 36 -12 38 -5 2 -7 9 -4 15 8 22 -22 92 -40 91 -9 -1 -13 2 -10 7 7 11 -34 11 -63 -1z m441 -111 c-2 -4 2 -42 10 -86 8 -43 20 -113 27 -155 7 -42 16 -75 21 -72 4 3 7 -3 6 -13 -3 -43 3 -84 12 -78 6 3 10 -1 10 -9 0 -9 -4 -16 -9 -16 -5 0 -7 -9 -4 -20 3 -11 1 -20 -3 -21 -5 0 -21 -2 -37 -4 -19 -3 -25 0 -21 8 5 8 3 8 -7 0 -7 -7 -30 -13 -50 -13 -21 0 -41 -5 -45 -11 -3 -6 -17 -9 -30 -6 -13 2 -24 0 -24 -6 0 -6 -2 -8 -5 -5 -3 2 2 19 11 36 9 18 13 42 9 54 -5 18 -4 20 4 8 9 -12 11 -8 12 18 3 53 4 57 11 62 4 3 8 26 10 50 2 25 6 47 10 50 3 3 8 19 10 35 2 17 6 33 11 36 4 3 8 24 10 46 1 23 5 39 8 37 9 -5 22 64 14 76 -3 5 3 8 14 7 11 0 18 -4 15 -8z m-67 -496 c-4 -3 -10 -3 -14 0 -3 4 0 7 7 7 7 0 10 -3 7 -7z m-256 -136 c-8 -8 -11 -7 -11 4 0 9 3 19 7 23 4 4 9 2 11 -4 3 -7 -1 -17 -7 -23z m22 -57 c3 -11 0 -23 -5 -27 -6 -3 -8 -1 -5 4 4 6 0 16 -8 23 -8 7 -12 16 -9 21 8 13 21 3 27 -21z m62 -270 c3 -5 4 -10 1 -10 -3 0 -8 5 -11 10 -3 6 -4 10 -1 10 3 0 8 -4 11 -10z"/>
 <path d="M548 23 c17 -2 47 -2 65 0 17 2 3 4 -33 4 -36 0 -50 -2 -32 -4z"/>
 <path d="M718 23 c34 -2 88 -2 120 0 31 2 3 3 -63 3 -66 0 -92 -1 -57 -3z"/>
 <path d="M1058 23 c12 -2 32 -2 45 0 12 2 2 4 -23 4 -25 0 -35 -2 -22 -4z"/>
 </g>
<g id="layer104" fill="#265e2e" stroke="none">
 <path d="M0 645 l0 -645 655 0 655 0 0 76 c0 74 -11 91 -25 37 -3 -15 -16 -37 -28 -49 -51 -50 -39 -49 -579 -52 -329 -2 -521 1 -546 8 -44 11 -70 31 -98 74 -18 29 -19 53 -17 545 3 512 3 515 25 560 17 34 35 51 68 68 l45 22 -77 1 -78 0 0 -645z"/>
 <path d="M258 1283 c56 -2 148 -2 205 0 56 1 10 3 -103 3 -113 0 -159 -2 -102 -3z"/>
 <path d="M808 1283 c34 -2 90 -2 125 0 34 2 6 3 -63 3 -69 0 -97 -1 -62 -3z"/>
 <path d="M1165 1275 c17 -8 35 -14 42 -15 6 0 25 -16 42 -37 39 -47 39 -54 46 -522 3 -212 7 -387 10 -389 3 -3 5 216 5 486 l0 492 -87 -1 c-83 -1 -86 -1 -58 -14z"/>
 <path d="M402 1193 c-28 -11 -33 -54 -16 -137 9 -45 21 -85 25 -91 5 -5 9 -19 9 -32 0 -12 9 -57 19 -100 11 -43 38 -154 61 -248 63 -261 62 -257 98 -282 27 -18 30 -23 19 -35 -44 -43 -48 -94 -10 -138 25 -30 30 -32 72 -26 56 7 81 34 81 85 0 40 -23 81 -45 81 -26 0 -26 18 0 44 14 14 25 35 25 47 0 33 33 131 45 134 5 2 19 6 30 10 11 4 33 9 49 11 16 2 35 9 43 15 19 16 16 53 -5 72 -17 15 -24 15 -102 -4 -46 -11 -92 -26 -101 -35 -15 -14 -16 -12 -9 25 4 21 16 75 28 118 36 134 63 244 67 271 3 15 12 55 21 89 19 74 13 110 -22 123 -40 16 -73 2 -89 -37 -8 -20 -15 -44 -15 -54 0 -10 -11 -57 -25 -104 -13 -47 -24 -89 -23 -93 1 -4 -1 -14 -5 -22 -3 -8 -8 -32 -12 -52 -15 -91 -33 -43 -109 291 -16 69 -52 95 -104 74z"/>
 <path d="M836 1181 c-4 -5 0 -41 8 -78 8 -37 20 -102 26 -143 7 -41 23 -120 36 -176 12 -56 25 -120 28 -144 3 -24 10 -66 16 -94 5 -28 15 -77 21 -109 6 -34 17 -61 26 -64 29 -11 33 12 17 103 -8 49 -21 123 -29 164 -16 94 -43 224 -55 270 -5 19 -14 71 -21 115 -7 44 -18 98 -24 120 -12 39 -37 57 -49 36z"/>
 <path d="M416 558 c-73 -16 -73 -20 -34 -168 11 -41 21 -87 23 -103 7 -51 24 -57 98 -36 30 8 37 15 37 35 0 31 -38 193 -51 216 -5 10 -9 26 -9 37 0 25 -16 30 -64 19z"/>
 </g>
<g id="layer105" fill="#2b6f35" stroke="none">
 <path d="M0 645 l0 -645 655 0 655 0 -1 78 0 77 -18 -40 c-25 -54 -57 -82 -111 -94 -28 -7 -232 -10 -535 -10 -398 0 -498 3 -530 14 -22 8 -41 19 -43 25 -2 5 -9 10 -16 10 -7 0 -20 21 -28 48 -13 40 -15 119 -11 551 5 588 0 561 99 611 l39 19 -77 1 -78 0 0 -645z"/>
 <path d="M258 1283 c56 -2 148 -2 205 0 56 1 10 3 -103 3 -113 0 -159 -2 -102 -3z"/>
 <path d="M808 1283 c34 -2 90 -2 125 0 34 2 6 3 -63 3 -69 0 -97 -1 -62 -3z"/>
 <path d="M1150 1280 c8 -5 23 -10 32 -10 25 0 79 -50 94 -87 11 -25 14 -97 15 -290 1 -142 5 -332 9 -423 5 -122 7 -36 8 328 l2 492 -87 0 c-61 0 -83 -3 -73 -10z"/>
 <path d="M394 1186 c-25 -19 -24 -76 3 -176 12 -41 30 -115 42 -165 87 -382 123 -510 149 -534 48 -44 152 -9 152 51 0 10 8 46 18 78 14 48 21 60 38 60 11 0 24 3 27 7 4 3 21 8 39 10 17 2 37 8 45 14 19 16 16 53 -5 72 -17 15 -25 15 -107 -5 -65 -16 -89 -27 -93 -40 -2 -10 -8 -16 -12 -13 -8 5 3 73 25 149 18 64 65 253 71 286 2 14 11 55 21 92 19 77 11 111 -31 122 -45 11 -72 -8 -85 -61 -7 -26 -21 -80 -32 -119 -11 -38 -22 -83 -24 -100 -12 -71 -28 -134 -36 -134 -9 0 -26 58 -57 190 -49 206 -60 230 -107 230 -12 0 -30 -6 -41 -14z m203 -433 c-4 -3 -7 0 -7 7 0 7 3 10 7 7 3 -4 3 -10 0 -14z"/>
 <path d="M836 1181 c-3 -5 0 -42 9 -83 8 -40 24 -125 36 -188 11 -63 27 -140 34 -170 8 -30 16 -75 19 -99 3 -24 10 -67 16 -95 5 -28 15 -77 21 -109 6 -34 17 -61 26 -64 29 -11 33 12 17 103 -8 49 -20 114 -25 144 -5 30 -11 64 -14 75 -22 95 -47 221 -55 275 -20 128 -45 215 -62 218 -9 2 -19 -1 -22 -7z"/>
 <path d="M416 558 c-73 -16 -73 -20 -34 -168 11 -41 21 -87 23 -103 6 -45 13 -50 62 -42 63 9 73 14 73 37 0 29 -39 200 -50 220 -6 10 -10 26 -10 37 0 25 -16 30 -64 19z"/>
 <path d="M602 246 c-31 -46 -28 -82 10 -118 28 -26 37 -29 73 -24 50 8 75 36 75 86 0 57 -27 83 -87 86 -45 2 -50 0 -71 -30z"/>
 </g>
<g id="layer106" fill="#467e4f" stroke="none">
 <path d="M0 645 l0 -645 655 0 655 0 -1 78 0 77 -19 -40 c-9 -22 -32 -53 -49 -70 l-32 -30 -552 0 c-517 0 -554 1 -579 18 -64 44 -63 34 -63 447 0 206 2 453 6 547 5 165 6 174 30 199 13 15 42 35 64 45 l40 19 -77 0 -78 0 0 -645z"/>
 <path d="M258 1283 c56 -2 148 -2 205 0 56 1 10 3 -103 3 -113 0 -159 -2 -102 -3z"/>
 <path d="M808 1283 c34 -2 90 -2 125 0 34 2 6 3 -63 3 -69 0 -97 -1 -62 -3z"/>
 <path d="M1175 1274 c49 -18 92 -58 104 -98 5 -17 13 -218 16 -446 4 -228 9 -417 11 -419 2 -2 4 217 4 487 l0 492 -87 -1 -88 0 40 -15z"/>
 <path d="M412 1190 c-42 -18 -46 -47 -19 -156 14 -54 55 -225 92 -379 36 -154 72 -295 80 -313 18 -40 52 -57 99 -48 35 7 76 46 76 72 0 8 7 40 16 72 16 57 17 59 63 71 94 25 96 26 99 52 5 44 -19 54 -95 40 -73 -13 -123 -35 -123 -53 0 -8 -3 -9 -10 -2 -6 6 4 65 30 169 22 88 46 189 54 225 8 36 22 93 30 127 18 72 10 107 -28 125 -20 9 -30 8 -50 -6 -26 -17 -30 -28 -67 -181 -11 -49 -30 -128 -42 -174 l-21 -84 -17 69 c-10 38 -34 134 -54 214 -42 167 -53 183 -113 160z"/>
 <path d="M837 1183 c-5 -8 1 -44 63 -363 21 -107 48 -250 60 -317 19 -105 25 -123 40 -123 11 0 21 3 24 8 2 4 -18 124 -46 267 -27 143 -56 295 -64 339 -28 155 -39 191 -56 194 -9 2 -18 -1 -21 -5z"/>
 <path d="M393 553 c-44 -9 -45 -23 -8 -169 20 -76 38 -140 40 -142 7 -8 83 10 101 23 18 12 18 17 -5 111 -39 165 -45 179 -77 180 -16 1 -39 0 -51 -3z"/>
 <path d="M609 251 c-40 -41 -39 -83 3 -123 27 -25 38 -29 67 -24 47 7 81 42 81 82 0 46 -9 63 -41 79 -43 23 -77 18 -110 -14z"/>
 </g>
<g id="layer107" fill="#4e8c57" stroke="none">
 <path d="M0 645 l0 -645 655 0 655 0 -1 78 0 77 -19 -40 c-9 -22 -32 -53 -49 -70 l-32 -30 -540 -3 c-598 -3 -585 -4 -632 62 -22 31 -22 34 -22 401 0 204 2 450 5 547 5 171 6 177 30 204 14 14 43 35 65 45 l40 19 -77 0 -78 0 0 -645z"/>
 <path d="M258 1283 c56 -2 148 -2 205 0 56 1 10 3 -103 3 -113 0 -159 -2 -102 -3z"/>
 <path d="M808 1283 c34 -2 90 -2 125 0 34 2 6 3 -63 3 -69 0 -97 -1 -62 -3z"/>
 <path d="M1182 1272 c33 -12 56 -29 77 -57 l29 -40 7 -430 c4 -236 9 -432 11 -434 2 -2 4 217 4 487 l0 492 -87 -1 -88 -1 47 -16z"/>
 <path d="M412 1189 c-44 -17 -46 -46 -14 -175 17 -65 40 -159 52 -209 111 -473 118 -497 161 -510 30 -10 84 2 103 24 9 10 25 53 37 97 11 43 21 79 22 80 1 0 29 9 62 18 33 10 66 19 73 22 18 5 11 54 -10 67 -21 14 -166 -21 -190 -45 -28 -28 -29 -5 -5 94 13 51 36 145 51 208 15 63 36 149 47 192 22 87 16 121 -25 140 -35 15 -72 -10 -85 -59 -16 -59 -47 -190 -66 -278 -10 -44 -20 -87 -22 -95 -5 -15 -16 22 -74 255 -17 72 -37 140 -45 151 -15 26 -42 34 -72 23z"/>
 <path d="M837 1183 c-3 -5 3 -51 13 -103 10 -52 37 -192 60 -310 23 -118 45 -235 50 -260 5 -25 12 -62 15 -83 6 -38 28 -58 45 -41 5 5 4 29 -1 54 -10 50 -71 368 -101 530 -33 182 -42 215 -60 218 -9 2 -18 -1 -21 -5z"/>
 <path d="M393 553 c-44 -9 -45 -23 -9 -162 18 -73 38 -137 43 -142 13 -13 75 -2 100 16 17 13 16 20 -17 152 -36 137 -36 138 -65 139 -17 1 -40 0 -52 -3z"/>
 <path d="M609 251 c-40 -41 -39 -83 3 -123 27 -25 38 -29 67 -24 81 13 110 99 50 150 -41 35 -83 34 -120 -3z"/>
 </g>
<g id="layer108" fill="#5a9865" stroke="none">
 <path d="M0 645 l0 -645 655 0 655 0 -1 78 c-1 42 -4 68 -8 57 -14 -41 -34 -71 -64 -95 l-31 -25 -539 -3 c-596 -3 -583 -4 -630 62 -22 31 -22 36 -24 397 0 201 2 447 6 547 6 174 7 182 31 208 14 14 43 35 65 45 l40 19 -77 0 -78 0 0 -645z"/>
 <path d="M258 1283 c56 -2 148 -2 205 0 56 1 10 3 -103 3 -113 0 -159 -2 -102 -3z"/>
 <path d="M808 1283 c34 -2 90 -2 125 0 34 2 6 3 -63 3 -69 0 -97 -1 -62 -3z"/>
 <path d="M1155 1283 c51 -11 101 -47 123 -89 8 -14 14 -166 18 -450 4 -236 8 -431 10 -433 2 -2 4 217 4 487 l0 492 -87 -1 c-49 -1 -79 -3 -68 -6z"/>
 <path d="M413 1189 c-38 -14 -47 -45 -30 -103 14 -48 41 -164 73 -306 8 -36 36 -153 63 -260 56 -220 65 -236 135 -227 54 8 73 30 97 122 11 44 22 81 24 83 2 2 34 12 72 21 64 16 68 19 68 46 0 45 -23 51 -112 29 -43 -10 -86 -27 -96 -37 -10 -10 -21 -16 -24 -14 -2 3 5 45 16 94 53 218 71 294 91 374 29 116 29 148 0 171 -50 41 -84 10 -110 -102 -11 -47 -29 -121 -40 -165 -11 -44 -22 -97 -26 -118 -13 -76 -13 -76 -90 238 -36 149 -55 175 -111 154z"/>
 <path d="M840 1160 c0 -16 9 -73 20 -127 17 -89 33 -169 101 -523 23 -121 29 -136 52 -127 12 4 9 31 -15 164 -82 441 -118 625 -124 634 -13 21 -34 8 -34 -21z"/>
 <path d="M393 553 c-39 -8 -42 -23 -21 -113 11 -47 28 -110 37 -140 l16 -55 40 3 c49 4 75 18 75 40 0 9 -15 73 -33 142 -33 123 -34 125 -63 126 -16 1 -39 0 -51 -3z"/>
 <path d="M644 273 c-36 -7 -59 -40 -59 -85 0 -81 98 -115 153 -53 31 37 29 80 -7 116 -28 28 -41 31 -87 22z"/>
 </g>
<g id="layer109" fill="#5fa36b" stroke="none">
 <path d="M0 645 l0 -645 655 0 655 0 -1 78 c0 56 -3 70 -9 50 -13 -43 -47 -84 -84 -102 -30 -14 -96 -16 -561 -16 -582 0 -571 -1 -618 64 -22 30 -22 37 -25 371 -1 187 1 433 5 547 l8 207 33 34 c19 19 48 39 65 45 28 9 22 10 -45 11 l-78 1 0 -645z"/>
 <path d="M498 1283 c12 -2 32 -2 45 0 12 2 2 4 -23 4 -25 0 -35 -2 -22 -4z"/>
 <path d="M808 1283 c34 -2 90 -2 125 0 34 2 6 3 -63 3 -69 0 -97 -1 -62 -3z"/>
 <path d="M1169 1280 c43 -10 81 -39 104 -77 16 -28 18 -74 24 -459 3 -236 7 -431 9 -433 2 -2 4 217 4 487 l0 492 -87 -1 c-67 -1 -80 -3 -54 -9z"/>
 <path d="M413 1189 c-38 -14 -47 -45 -30 -103 8 -28 26 -100 40 -161 117 -505 142 -596 169 -619 27 -21 89 -17 117 9 10 8 29 54 41 100 25 93 16 85 122 110 33 8 51 28 46 51 -6 34 -33 39 -110 20 -88 -23 -108 -32 -108 -51 0 -8 -4 -15 -10 -15 -17 0 -18 -5 50 275 81 334 82 343 60 370 -16 19 -74 20 -89 1 -12 -14 -31 -87 -77 -291 -14 -66 -29 -123 -33 -127 -6 -7 -30 81 -82 297 -30 127 -52 154 -106 134z"/>
 <path d="M844 1139 c4 -30 15 -99 26 -154 11 -55 30 -156 44 -225 13 -69 35 -181 47 -249 22 -117 37 -149 58 -125 5 5 0 52 -10 104 -11 52 -30 151 -44 220 -13 69 -36 188 -50 265 -40 214 -39 210 -59 213 -17 4 -18 -1 -12 -49z"/>
 <path d="M395 553 c-36 -9 -44 -29 -30 -81 7 -26 21 -82 31 -125 24 -106 29 -112 85 -96 24 7 47 15 52 19 7 6 -16 124 -46 235 -12 45 -16 50 -43 52 -16 0 -38 -1 -49 -4z"/>
 <path d="M644 273 c-36 -7 -59 -40 -59 -85 0 -81 98 -115 153 -53 31 37 29 80 -7 116 -28 28 -41 31 -87 22z"/>
 </g>
<g id="layer110" fill="#97c9a0" stroke="none">
 <path d="M0 645 l0 -645 655 0 655 0 -1 78 c0 56 -3 70 -9 50 -13 -43 -47 -84 -84 -102 -30 -14 -96 -16 -561 -16 -582 0 -571 -1 -618 64 -22 30 -22 37 -25 371 -1 187 1 433 5 547 l8 207 35 36 c19 20 48 40 65 44 24 7 14 9 -47 10 l-78 1 0 -645z"/>
 <path d="M808 1283 c34 -2 90 -2 125 0 34 2 6 3 -63 3 -69 0 -97 -1 -62 -3z"/>
 <path d="M1169 1280 c43 -10 81 -39 104 -78 17 -29 19 -71 26 -464 l8 -433 1 493 2 492 -87 -1 c-67 -1 -80 -3 -54 -9z"/>
 <path d="M408 1186 c-42 -21 -42 -27 61 -456 91 -381 97 -403 123 -424 28 -22 92 -17 119 11 10 10 27 54 38 97 12 44 26 83 32 87 6 3 35 12 64 18 57 13 79 30 73 57 -6 34 -33 39 -110 20 -88 -23 -108 -32 -108 -51 0 -8 -4 -15 -10 -15 -14 0 -12 24 9 109 64 251 112 462 113 493 1 15 -5 34 -12 43 -16 19 -74 20 -89 1 -12 -14 -31 -87 -77 -291 -14 -66 -30 -124 -34 -128 -4 -5 -29 81 -55 190 -26 109 -53 208 -61 219 -16 27 -46 35 -76 20z"/>
 <path d="M840 1173 c0 -18 14 -95 49 -283 18 -96 30 -160 79 -415 13 -69 21 -91 35 -93 25 -5 23 14 -24 258 -104 538 -105 545 -123 548 -10 2 -16 -3 -16 -15z"/>
 <path d="M388 549 c-19 -7 -28 -18 -28 -32 1 -35 56 -257 67 -268 10 -10 87 5 105 21 8 6 -8 89 -40 215 -17 66 -20 70 -48 72 -16 1 -41 -3 -56 -8z"/>
 <path d="M640 271 c-33 -9 -64 -64 -56 -97 4 -14 19 -37 34 -51 34 -31 86 -26 120 12 31 37 29 80 -7 116 -30 29 -45 33 -91 20z"/>
 </g>
<g id="layer111" fill="#d0dacf" stroke="none">
 <path d="M0 645 l0 -645 655 0 655 0 0 78 -1 77 -13 -38 c-17 -47 -38 -71 -81 -91 -29 -14 -102 -16 -560 -16 -582 0 -571 -1 -618 64 -22 31 -22 32 -25 521 -1 270 0 514 4 543 6 60 46 115 99 138 28 13 26 13 -42 14 l-73 0 0 -645z"/>
 <path d="M1169 1280 c44 -10 81 -39 106 -81 19 -32 20 -55 23 -449 1 -228 4 -422 6 -430 2 -8 4 207 5 478 l1 492 -87 -1 c-67 -1 -80 -3 -54 -9z"/>
 <path d="M412 1187 c-47 -21 -48 -15 60 -457 32 -135 66 -275 74 -313 27 -116 78 -152 151 -107 28 17 34 28 49 100 19 89 21 91 101 110 56 13 77 29 71 56 -6 31 -33 39 -85 26 -26 -7 -65 -17 -85 -23 -22 -6 -39 -17 -43 -29 -4 -11 -11 -20 -16 -20 -14 0 -11 35 11 113 10 40 41 166 68 282 47 199 48 211 33 238 -17 30 -54 36 -84 15 -12 -9 -31 -75 -63 -213 -50 -220 -53 -230 -59 -224 -2 3 -25 95 -51 204 -25 110 -52 210 -60 221 -16 26 -42 34 -72 21z"/>
 <path d="M840 1173 c0 -10 11 -76 25 -148 42 -220 77 -405 99 -525 17 -91 25 -115 39 -118 11 -2 17 3 17 15 0 25 -133 729 -146 776 -3 9 -12 17 -20 17 -8 0 -14 -8 -14 -17z"/>
 <path d="M398 548 c-46 -12 -46 -14 -12 -156 38 -160 28 -145 87 -139 28 4 54 10 59 15 7 7 -39 226 -58 276 -7 18 -21 19 -76 4z"/>
 <path d="M650 272 c-8 -2 -25 -14 -37 -25 -46 -42 -21 -122 44 -141 30 -9 82 19 94 51 11 31 4 77 -16 93 -18 15 -67 28 -85 22z"/>
 </g>
<g id="layer112" fill="#d3fad9" stroke="none">
 <path d="M0 645 l0 -645 655 0 655 0 0 78 -1 77 -13 -38 c-17 -47 -38 -71 -81 -91 -29 -14 -102 -16 -560 -16 -582 0 -571 -1 -618 64 -22 31 -22 32 -25 521 -1 270 0 514 4 543 6 60 46 115 99 138 28 13 26 13 -42 14 l-73 0 0 -645z"/>
 <path d="M1169 1280 c44 -10 81 -39 106 -81 19 -32 20 -55 23 -449 1 -228 4 -422 6 -430 2 -8 4 207 5 478 l1 492 -87 -1 c-67 -1 -80 -3 -54 -9z"/>
 <path d="M412 1187 c-47 -21 -48 -15 60 -457 32 -135 66 -275 74 -313 27 -116 78 -152 151 -107 28 17 34 28 49 100 19 89 21 91 101 110 56 13 77 29 71 56 -6 35 -32 39 -114 18 -83 -20 -104 -34 -104 -65 0 -11 -4 -17 -10 -14 -15 9 -12 49 10 128 10 40 41 166 68 282 47 199 48 211 33 238 -17 30 -54 36 -84 15 -12 -9 -31 -75 -63 -213 -50 -220 -53 -230 -59 -224 -2 3 -25 95 -51 204 -25 110 -52 210 -60 221 -16 26 -42 34 -72 21z"/>
 <path d="M840 1173 c0 -10 11 -76 25 -148 42 -220 77 -405 99 -525 17 -91 25 -115 39 -118 11 -2 17 3 17 15 0 18 -81 460 -100 543 -6 25 -17 83 -26 130 -20 112 -23 120 -40 120 -8 0 -14 -8 -14 -17z"/>
 <path d="M398 548 c-46 -12 -46 -14 -12 -156 38 -160 28 -145 87 -139 28 4 54 10 59 15 7 7 -39 226 -58 276 -7 18 -21 19 -76 4z"/>
 <path d="M650 272 c-8 -2 -25 -14 -37 -25 -46 -42 -21 -122 44 -141 30 -9 82 19 94 51 11 31 4 77 -16 93 -18 15 -67 28 -85 22z"/>
 </g>
<g id="layer113" fill="#e2f8df" stroke="none">
 <path d="M0 733 c0 -306 2 -554 5 -551 3 2 5 222 5 487 1 297 5 493 11 510 13 32 45 68 84 92 l30 19 -67 0 -68 0 0 -557z"/>
 <path d="M1183 1278 c53 -14 103 -75 110 -136 3 -26 6 -216 7 -422 0 -206 3 -376 5 -379 3 -2 5 210 5 472 l0 477 -82 -1 c-75 -1 -79 -2 -45 -11z"/>
 <path d="M412 1187 c-33 -15 -37 -51 -17 -131 9 -39 21 -87 26 -106 4 -19 23 -100 42 -180 19 -80 45 -188 57 -240 51 -215 63 -236 128 -232 52 4 77 36 98 126 l17 74 46 12 c93 22 118 40 105 75 -10 25 -47 27 -124 6 -75 -21 -90 -31 -90 -65 0 -15 -3 -17 -11 -9 -13 13 -3 106 18 163 3 8 7 26 9 40 1 14 7 41 13 60 5 19 20 78 32 130 12 52 30 125 39 161 16 61 16 68 1 92 -17 30 -55 36 -85 14 -17 -12 -26 -46 -66 -237 -15 -74 -46 -189 -52 -195 -3 -3 -13 22 -21 57 -66 265 -90 355 -98 369 -11 22 -39 28 -67 16z"/>
 <path d="M840 1180 c0 -5 4 -31 9 -57 5 -26 15 -79 21 -118 7 -38 18 -97 26 -130 7 -33 18 -89 23 -125 9 -59 23 -128 51 -263 5 -27 10 -59 10 -72 0 -28 17 -42 32 -27 7 7 5 38 -7 99 -9 48 -21 111 -25 139 -4 27 -15 81 -23 120 -9 38 -20 94 -25 124 -5 30 -20 105 -32 165 -12 61 -24 120 -26 133 -4 21 -34 32 -34 12z"/>
 <path d="M398 547 c-50 -14 -51 -6 15 -254 12 -46 21 -50 86 -37 27 6 31 11 31 38 0 17 -11 72 -24 121 -13 50 -27 102 -30 118 -7 29 -17 31 -78 14z"/>
 <path d="M643 269 c-52 -19 -68 -91 -30 -133 35 -40 69 -43 108 -8 27 24 33 36 32 67 -2 56 -58 93 -110 74z"/>
 <path d="M1 88 l-1 -88 78 1 c70 1 74 2 43 12 -50 16 -98 69 -109 119 -9 39 -10 36 -11 -44z"/>
 <path d="M1300 127 c0 -29 -22 -60 -63 -89 -25 -18 -51 -24 -117 -29 -78 -5 -74 -6 53 -7 l137 -2 0 75 c0 41 -2 75 -5 75 -3 0 -5 -10 -5 -23z"/>
 <path d="M242 3 c49 -2 127 -2 175 0 49 1 9 3 -87 3 -96 0 -136 -2 -88 -3z"/>
 <path d="M753 3 c9 -2 23 -2 30 0 6 3 -1 5 -18 5 -16 0 -22 -2 -12 -5z"/>
 </g>
<g id="layer114" fill="#ddffe4" stroke="none">
 <path d="M0 733 c0 -306 2 -554 5 -551 2 2 5 220 5 484 1 263 5 495 10 515 9 32 39 63 95 96 17 11 10 12 -47 13 l-68 0 0 -557z"/>
 <path d="M1183 1278 c53 -14 103 -75 110 -136 3 -26 6 -216 7 -422 0 -206 3 -376 5 -379 3 -2 5 210 5 472 l0 477 -82 -1 c-75 -1 -79 -2 -45 -11z"/>
 <path d="M401 1181 c-29 -18 -20 -100 29 -266 4 -16 18 -73 29 -125 25 -112 88 -369 103 -422 15 -52 41 -73 86 -69 53 4 72 28 97 123 l22 83 44 7 c84 15 116 37 103 73 -9 21 -47 29 -86 17 -18 -6 -52 -16 -75 -22 -34 -9 -43 -15 -48 -40 -4 -17 -11 -30 -17 -30 -14 0 -1 115 19 170 3 8 7 26 9 40 3 26 41 185 79 331 21 80 21 88 6 113 -10 17 -24 26 -41 26 -46 0 -61 -21 -80 -111 -10 -46 -26 -118 -35 -159 -10 -41 -22 -98 -29 -127 -6 -28 -14 -54 -17 -57 -3 -3 -13 27 -23 67 -48 196 -89 356 -95 365 -9 14 -64 23 -80 13z"/>
 <path d="M840 1180 c0 -5 4 -31 9 -57 5 -26 15 -79 21 -118 7 -38 18 -97 26 -130 7 -33 18 -89 23 -125 9 -59 23 -128 51 -263 5 -27 10 -59 10 -72 0 -27 19 -43 29 -26 10 15 -7 131 -49 336 -10 50 -23 115 -28 145 -32 182 -66 320 -78 320 -8 0 -14 -4 -14 -10z"/>
 <path d="M398 547 c-45 -13 -47 -22 -18 -122 11 -38 20 -80 20 -92 0 -12 6 -28 13 -35 8 -7 12 -20 9 -30 -5 -20 19 -23 77 -12 27 6 31 11 31 38 0 17 -11 72 -24 121 -13 50 -27 102 -30 118 -7 29 -17 31 -78 14z"/>
 <path d="M631 257 c-17 -10 -31 -20 -31 -20 -12 -49 -9 -77 12 -100 37 -42 69 -44 109 -8 27 25 33 38 32 68 -2 63 -67 95 -122 60z"/>
 <path d="M1 88 l-1 -88 78 1 c70 1 74 2 43 12 -50 16 -98 69 -109 119 -9 39 -10 36 -11 -44z"/>
 <path d="M1300 125 c0 -16 -15 -42 -38 -67 -39 -41 -39 -41 -133 -48 l-94 -7 138 -1 137 -2 0 75 c0 41 -2 75 -5 75 -3 0 -5 -11 -5 -25z"/>
 <path d="M242 3 c49 -2 127 -2 175 0 49 1 9 3 -87 3 -96 0 -136 -2 -88 -3z"/>
 <path d="M753 3 c9 -2 23 -2 30 0 6 3 -1 5 -18 5 -16 0 -22 -2 -12 -5z"/>
 </g>
<g id="layer115" fill="#f8fdf9" stroke="none">
 <path d="M0 1043 c0 -135 3 -244 6 -240 4 3 6 85 5 181 0 99 4 187 9 202 12 32 54 74 90 91 22 10 17 11 -42 12 l-68 1 0 -247z"/>
 <path d="M1175 1281 c48 -12 80 -38 102 -83 21 -41 21 -58 22 -442 1 -220 4 -402 6 -405 3 -2 5 208 5 467 l0 472 -82 -1 c-58 -1 -74 -3 -53 -8z"/>
 <path d="M413 1177 c-13 -5 -23 -15 -24 -21 -3 -32 5 -80 26 -166 14 -52 49 -201 80 -330 74 -315 74 -315 96 -339 27 -29 82 -28 109 1 11 13 27 47 36 78 31 115 18 102 127 130 43 12 48 15 45 39 -3 24 -7 26 -45 25 -78 -1 -163 -38 -163 -71 0 -7 -4 -13 -9 -13 -16 0 -17 51 -4 105 30 122 107 444 113 479 12 59 -2 86 -44 86 -31 0 -46 -13 -50 -42 -1 -3 -4 -10 -8 -14 -5 -4 -8 -17 -8 -29 0 -12 -6 -41 -14 -66 -7 -24 -24 -91 -36 -149 -28 -132 -38 -161 -50 -139 -5 9 -25 85 -44 170 -60 260 -76 292 -133 266z"/>
 <path d="M850 1158 c0 -7 7 -51 15 -98 9 -47 18 -101 20 -120 2 -19 11 -64 20 -98 8 -35 17 -80 19 -100 2 -21 6 -44 9 -52 3 -8 13 -53 21 -100 9 -47 19 -96 21 -110 3 -14 8 -38 11 -55 6 -35 11 -42 23 -29 5 5 1 47 -9 99 -44 223 -63 322 -65 345 -1 14 -5 32 -8 40 -3 8 -5 22 -5 30 0 8 -10 56 -21 107 -20 89 -29 130 -30 146 -2 12 -21 8 -21 -5z"/>
 <path d="M388 543 c-20 -5 -27 -30 -17 -58 4 -11 15 -56 24 -100 10 -44 21 -84 25 -90 8 -10 10 -16 10 -35 0 -14 71 -2 89 15 12 11 10 31 -13 127 -15 62 -30 121 -32 131 -5 17 -43 21 -86 10z"/>
 <path d="M645 260 c-28 -11 -49 -37 -52 -65 -3 -23 44 -91 55 -81 3 3 11 1 19 -6 11 -9 21 -4 48 22 43 41 46 80 10 115 -25 26 -45 30 -80 15z"/>
 <path d="M1 73 l-1 -73 73 1 c57 1 66 3 43 9 -39 12 -94 67 -105 105 -8 24 -9 16 -10 -42z"/>
 <path d="M1297 113 c-7 -36 -61 -91 -101 -102 -26 -8 -19 -9 42 -10 l72 -1 0 70 c0 74 -4 87 -13 43z"/>
 </g>

</svg>